<svg width="205" height="48" viewBox="0 0 205 48" fill="none" xmlns="http://www.w3.org/2000/svg">
<path d="M28.2115 29.757H14.8212L12.4797 35.2156C11.8944 36.56 11.6017 37.5629 11.6017 38.2243C11.6097 38.4987 11.6819 38.7674 11.8125 39.0089C11.9432 39.2503 12.1286 39.4578 12.3539 39.6146C12.8534 40.0048 13.9373 40.2643 15.6056 40.3931V41.3356H4.73828V40.3902C6.18218 40.1346 7.11682 39.8029 7.54218 39.3951C8.41243 38.5775 9.3734 36.919 10.4251 34.4195L22.589 5.95605H23.47L35.508 34.7239C36.4837 37.0361 37.3617 38.5365 38.1422 39.2253C38.9227 39.9141 40.0241 40.3043 41.4466 40.396V41.3385H27.8046V40.3902C29.1802 40.32 30.111 40.0975 30.5968 39.6995C30.8224 39.536 31.0059 39.3213 31.1321 39.0729C31.2583 38.8246 31.3236 38.5498 31.3227 38.2712C31.3227 37.5258 30.9832 36.3443 30.3041 34.7268L28.2115 29.757ZM27.4973 27.8692L21.6437 13.8936L15.6261 27.8692H27.4973Z" fill="#202020"/>
<path d="M71.3911 5.96194L72.1843 17.719H71.3911C70.3375 14.2068 68.8331 11.6702 66.878 10.1093C64.9228 8.54829 62.5765 7.77463 59.8389 7.78829C57.6392 7.76372 55.4789 8.37339 53.6165 9.54438C51.7628 10.7151 50.3043 12.5688 49.2409 15.1054C48.1775 17.6419 47.6467 20.8127 47.6487 24.6175C47.6487 27.7395 48.1502 30.4517 49.1531 32.7541C50.0701 34.9431 51.6546 36.7868 53.6809 38.0224C55.7646 39.2648 58.1539 39.9004 60.5794 39.8576C62.6512 39.8999 64.6984 39.4037 66.5209 38.4176C68.2399 37.4576 70.1277 35.5493 72.1843 32.6927L72.9746 33.2019C71.2399 36.281 69.2165 38.5337 66.9043 39.96C64.5921 41.3863 61.8458 42.1005 58.6653 42.1024C52.9346 42.1024 48.4975 39.9776 45.3541 35.7278C43.0126 32.5629 41.8419 28.839 41.8419 24.5561C41.8079 21.2412 42.6059 17.9706 44.1628 15.0439C45.6173 12.2439 47.8318 9.91074 50.5521 8.31219C53.2447 6.72761 56.3167 5.90321 59.4409 5.92682C62.0166 5.94554 64.5513 6.57443 66.837 7.76195C67.5511 8.13658 68.0604 8.3239 68.3648 8.3239C68.587 8.32631 68.8075 8.2846 69.0135 8.2012C69.2195 8.11781 69.4068 7.99437 69.5648 7.83804C70.0478 7.29913 70.3738 6.63809 70.5072 5.92682L71.3911 5.96194Z" fill="#202020"/>
<path d="M86.7453 8.64V22.3112H94.355C96.3248 22.3112 97.6448 22.0185 98.3062 21.4185C99.1902 20.638 99.6838 19.2605 99.7872 17.2859H100.73V29.3239H99.7872C99.5472 27.642 99.3092 26.5619 99.0731 26.0839C98.7394 25.4639 98.2106 24.9711 97.5687 24.6819C96.8701 24.3424 95.797 24.1727 94.3492 24.1727H86.7394V35.5873C86.7394 37.1171 86.8077 38.0478 86.9443 38.3795C87.0846 38.7171 87.3367 38.9961 87.6584 39.1698C87.998 39.3658 88.6419 39.4624 89.596 39.4624H95.4497C97.4009 39.4624 98.8204 39.3268 99.7082 39.0556C100.675 38.7322 101.551 38.1811 102.26 37.4488C103.314 36.3951 104.393 34.8049 105.497 32.678H106.519L103.534 41.3502H76.8994V40.3902H78.1258C78.9362 40.3921 79.7341 40.1909 80.4467 39.8049C80.703 39.6839 80.9329 39.5136 81.1233 39.3037C81.3136 39.0938 81.4607 38.8483 81.556 38.5815C81.7511 38.0371 81.8487 36.9229 81.8487 35.239V12.7727C81.8487 10.5776 81.6272 9.22537 81.1843 8.7161C80.5736 8.03707 79.554 7.69756 78.1258 7.69756H76.8994V6.7522H103.551L103.935 14.3415H102.939C102.582 12.5249 102.192 11.2751 101.769 10.5922C101.303 9.88726 100.63 9.34422 99.8428 9.03805C99.1638 8.78439 97.9648 8.65659 96.2458 8.65464L86.7453 8.64Z" fill="#202020"/>
<path d="M144.076 41.3356H134.845L123.137 25.1649C122.271 25.2 121.566 25.2176 121.021 25.2176C120.799 25.2176 120.562 25.2176 120.307 25.2176C120.052 25.2176 119.789 25.1942 119.517 25.1766V35.2273C119.517 37.4029 119.755 38.7542 120.231 39.281C120.875 40.0303 121.847 40.4049 123.137 40.4049H124.489V41.3473H109.671V40.3903H110.982C112.444 40.3903 113.488 39.9142 114.117 38.962C114.474 38.4351 114.652 37.1854 114.652 35.2127V12.8781C114.652 10.7044 114.414 9.35318 113.938 8.8244C113.277 8.07513 112.291 7.70147 110.982 7.70343H109.68V6.75806H122.28C125.952 6.75806 128.659 7.02635 130.402 7.56293C132.138 8.09375 133.68 9.12142 134.839 10.519C136.054 11.9521 136.702 13.7802 136.662 15.6585C136.695 17.6999 135.952 19.6778 134.584 21.1932C133.199 22.7542 131.052 23.8595 128.145 24.5093L135.286 34.4312C136.92 36.7083 138.323 38.2215 139.495 38.9707C140.668 39.72 142.195 40.1932 144.076 40.3903V41.3356ZM119.517 23.561C119.839 23.561 120.12 23.561 120.357 23.561C120.594 23.561 120.79 23.561 120.942 23.561C124.24 23.561 126.726 22.8468 128.4 21.4185C129.206 20.76 129.851 19.9264 130.287 18.9811C130.722 18.0358 130.937 17.0036 130.914 15.9629C130.914 13.8029 130.238 12.0468 128.886 10.6946C127.533 9.34245 125.744 8.66635 123.518 8.66635C122.171 8.70879 120.831 8.87139 119.514 9.1522L119.517 23.561Z" fill="#202020"/>
<path d="M161.862 6.33954H162.641L164.69 11.8508H163.934L163.349 10.1708H161.151L160.566 11.8508H159.857L161.862 6.33954ZM161.338 9.60588H163.141L162.509 7.75612C162.401 7.44881 162.263 6.97759 162.263 6.97759H162.246C162.246 6.97759 162.099 7.44003 161.991 7.75612L161.338 9.60588Z" fill="#202020"/>
<path d="M164.798 9.86047C164.798 8.70437 165.538 7.76486 166.724 7.76486C167.131 7.7345 167.535 7.86137 167.852 8.11939C168.168 8.37742 168.374 8.747 168.427 9.15217H167.798C167.767 8.8954 167.638 8.66056 167.438 8.49688C167.237 8.33319 166.982 8.25337 166.724 8.27413C165.878 8.27413 165.439 8.97657 165.439 9.85462C165.439 10.7327 165.878 11.4292 166.724 11.4292C166.861 11.4414 167 11.4249 167.13 11.381C167.261 11.3371 167.381 11.2666 167.484 11.174C167.586 11.0814 167.668 10.9686 167.724 10.8428C167.781 10.717 167.811 10.5808 167.812 10.4429H168.427C168.345 11.3971 167.719 11.9531 166.724 11.9531C165.538 11.959 164.798 11.0166 164.798 9.86047Z" fill="#202020"/>
<path d="M168.799 9.86047C168.799 8.70437 169.539 7.76486 170.725 7.76486C171.132 7.7345 171.536 7.86137 171.853 8.11939C172.169 8.37742 172.375 8.747 172.428 9.15217H171.796C171.766 8.89564 171.637 8.66082 171.437 8.49708C171.238 8.33333 170.982 8.25342 170.725 8.27413C169.879 8.27413 169.44 8.97657 169.44 9.85462C169.44 10.7327 169.879 11.4292 170.725 11.4292C170.862 11.4414 171.001 11.4249 171.131 11.381C171.262 11.3371 171.382 11.2666 171.485 11.174C171.587 11.0814 171.669 10.9686 171.725 10.8428C171.782 10.717 171.812 10.5808 171.813 10.4429H172.428C172.343 11.3971 171.72 11.9531 170.725 11.9531C169.539 11.959 168.799 11.0166 168.799 9.86047Z" fill="#202020"/>
<path d="M175.559 11.8507V11.3034H175.542C175.415 11.5051 175.237 11.6702 175.027 11.7826C174.816 11.895 174.58 11.9507 174.342 11.9444C174.163 11.9606 173.984 11.9377 173.815 11.8775C173.646 11.8172 173.492 11.7209 173.365 11.5953C173.237 11.4697 173.138 11.3178 173.075 11.1502C173.011 10.9825 172.985 10.8031 172.998 10.6244V7.86438H173.616V10.6097C173.616 11.1249 173.947 11.4263 174.509 11.4263C174.652 11.4284 174.794 11.4006 174.926 11.3446C175.058 11.2887 175.176 11.2059 175.274 11.1015C175.372 10.9972 175.448 10.8735 175.495 10.7384C175.543 10.6033 175.562 10.4598 175.551 10.3171V7.86438H176.174V11.8507H175.559Z" fill="#202020"/>
<path d="M177.656 8.52876H177.67C177.791 8.31842 177.963 8.14257 178.172 8.01804C178.38 7.89352 178.616 7.82448 178.859 7.81754C178.946 7.81559 179.032 7.83152 179.113 7.86437V8.4673H179.09C178.996 8.43494 178.896 8.422 178.797 8.42925C178.639 8.4258 178.482 8.455 178.336 8.51502C178.19 8.57505 178.058 8.66461 177.948 8.77809C177.838 8.89157 177.753 9.02653 177.697 9.1745C177.642 9.32248 177.618 9.48028 177.626 9.63803V11.8507H177.003V7.86437H177.626L177.656 8.52876Z" fill="#202020"/>
<path d="M181.964 11.2947C181.81 11.4983 181.61 11.6621 181.38 11.7721C181.15 11.8821 180.896 11.9352 180.641 11.9269C179.883 11.9269 179.292 11.5727 179.292 10.8176C179.292 9.87808 180.03 9.68491 181.025 9.52979C181.587 9.44491 181.982 9.39223 181.982 8.95906C181.982 8.52589 181.657 8.25955 181.086 8.25955C180.439 8.25955 180.114 8.53467 180.094 9.1376H179.471C179.494 8.36492 180.003 7.78833 181.06 7.78833C181.906 7.78833 182.523 8.10443 182.523 9.05272V10.9493C182.523 11.2713 182.599 11.4498 182.945 11.3737H182.983V11.8274C182.876 11.8714 182.761 11.8923 182.646 11.8888C182.562 11.8986 182.476 11.8906 182.395 11.8654C182.313 11.8402 182.238 11.7983 182.174 11.7424C182.11 11.6865 182.058 11.6178 182.022 11.5407C181.986 11.4636 181.966 11.3798 181.964 11.2947ZM181.979 10.3786V9.69955C181.695 9.84782 181.388 9.94679 181.071 9.99224C180.445 10.1093 179.945 10.2176 179.945 10.803C179.945 11.3327 180.36 11.4498 180.77 11.4498C180.92 11.4613 181.071 11.4425 181.214 11.3945C181.357 11.3465 181.489 11.2703 181.601 11.1703C181.714 11.0704 181.806 10.9488 181.871 10.8128C181.935 10.6768 181.972 10.5291 181.979 10.3786Z" fill="#202020"/>
<path d="M183.12 7.86437H183.705V6.60876H184.329V7.86437H185.099V8.37364H184.329V10.9639C184.329 11.2566 184.475 11.3327 184.73 11.3327C184.842 11.331 184.953 11.3133 185.061 11.28H185.084V11.8185C184.92 11.855 184.752 11.8736 184.584 11.8741C184.074 11.8741 183.705 11.6663 183.705 11.1014V8.37364H183.12V7.86437Z" fill="#202020"/>
<path d="M185.479 9.8605C185.479 8.70441 186.234 7.76489 187.366 7.76489C188.563 7.76489 189.201 8.68977 189.201 10.0068H186.119C186.163 10.8176 186.605 11.4351 187.404 11.4351C187.657 11.4576 187.909 11.3866 188.112 11.2355C188.316 11.0844 188.456 10.8638 188.508 10.6156H189.128C189.06 11.012 188.847 11.369 188.531 11.6173C188.215 11.8655 187.817 11.9873 187.416 11.959C186.201 11.959 185.479 11.0166 185.479 9.8605ZM186.134 9.53855H188.543C188.505 8.74538 188.095 8.25953 187.372 8.25953C186.649 8.25953 186.228 8.8127 186.134 9.53855Z" fill="#202020"/>
<path d="M160.065 18.9074C160.065 17.2888 161.037 16.0332 162.679 16.0332C163.967 16.0332 164.745 16.7737 164.892 17.7893H164.213C164.081 17.1044 163.534 16.6332 162.664 16.6332C161.453 16.6332 160.774 17.6137 160.774 18.9074C160.774 20.2566 161.523 21.1669 162.67 21.1669C163.712 21.1669 164.204 20.4586 164.274 19.6478H164.959C164.939 20.2291 164.703 20.7821 164.298 21.1991C164.074 21.4004 163.814 21.5557 163.531 21.6561C163.247 21.7566 162.947 21.8002 162.647 21.7844C161.084 21.7756 160.065 20.5815 160.065 18.9074Z" fill="#202020"/>
<path d="M165.421 19.68C165.421 18.5239 166.161 17.5815 167.35 17.5815C168.538 17.5815 169.27 18.5239 169.27 19.68C169.27 20.8361 168.544 21.7756 167.35 21.7756C166.156 21.7756 165.421 20.8361 165.421 19.68ZM168.64 19.68C168.64 18.802 168.21 18.0995 167.361 18.0995C166.513 18.0995 166.074 18.799 166.074 19.68C166.074 20.561 166.513 21.2517 167.361 21.2517C168.21 21.2517 168.64 20.5581 168.64 19.68Z" fill="#202020"/>
<path d="M170.517 18.3454H170.534C170.653 18.1373 170.823 17.963 171.028 17.8391C171.233 17.7151 171.466 17.6456 171.705 17.6371C171.793 17.6335 171.88 17.6495 171.96 17.6839V18.2839H171.936C171.847 18.2535 171.753 18.2406 171.658 18.2459C171.501 18.2429 171.344 18.2723 171.198 18.3325C171.052 18.3927 170.92 18.4823 170.81 18.5957C170.7 18.709 170.615 18.8438 170.56 18.9916C170.504 19.1394 170.48 19.297 170.488 19.4547V21.6586H169.864V17.6839H170.488L170.517 18.3454Z" fill="#202020"/>
<path d="M172.536 17.6839H173.162V18.2459C173.303 18.0378 173.494 17.8686 173.718 17.754C173.941 17.6394 174.19 17.5831 174.442 17.5903C175.451 17.5903 176.154 18.36 176.154 19.6859C176.154 21.0117 175.498 21.7844 174.418 21.7844C174.177 21.7981 173.936 21.7519 173.717 21.6497C173.498 21.5476 173.307 21.3927 173.162 21.199V22.9551H172.536V17.6839ZM175.527 19.6947C175.527 18.7991 175.15 18.123 174.395 18.123C173.517 18.123 173.121 18.8312 173.121 19.6947C173.121 20.5581 173.47 21.2605 174.386 21.2605C175.15 21.2605 175.527 20.5961 175.527 19.6947Z" fill="#202020"/>
<path d="M176.569 19.68C176.569 18.5239 177.307 17.5815 178.495 17.5815C179.683 17.5815 180.415 18.5239 180.415 19.68C180.415 20.8361 179.689 21.7756 178.495 21.7756C177.301 21.7756 176.569 20.8361 176.569 19.68ZM179.774 19.68C179.774 18.802 179.344 18.0995 178.495 18.0995C177.646 18.0995 177.207 18.799 177.207 19.68C177.207 20.561 177.646 21.2517 178.495 21.2517C179.344 21.2517 179.762 20.5581 179.762 19.68H179.774Z" fill="#202020"/>
<path d="M181.662 18.3454H181.68C181.8 18.1352 181.972 17.9596 182.18 17.8356C182.387 17.7115 182.624 17.6431 182.865 17.6371C182.953 17.6335 183.04 17.6495 183.12 17.6839V18.2839H183.097C183.007 18.253 182.913 18.2401 182.819 18.2459C182.661 18.2429 182.504 18.2723 182.358 18.3325C182.212 18.3927 182.08 18.4823 181.97 18.5957C181.861 18.709 181.775 18.8438 181.72 18.9916C181.664 19.1394 181.64 19.297 181.648 19.4547V21.6586H181.024V17.6839H181.648L181.662 18.3454Z" fill="#202020"/>
<path d="M185.974 21.1141C185.819 21.3175 185.618 21.481 185.388 21.5909C185.157 21.7009 184.903 21.7542 184.648 21.7463C183.893 21.7463 183.299 21.3893 183.299 20.6341C183.299 19.6946 184.039 19.5014 185.034 19.3463C185.596 19.2614 185.989 19.2088 185.989 18.7785C185.989 18.3483 185.667 18.0761 185.111 18.0761C184.464 18.0761 184.139 18.3541 184.115 18.9541H183.512C183.536 18.1844 184.045 17.6049 185.102 17.6049C185.951 17.6049 186.565 17.921 186.565 18.8693V20.7805C186.565 21.1053 186.641 21.281 186.99 21.2049H187.013V21.6585C186.905 21.7024 186.79 21.7234 186.673 21.72C186.586 21.7331 186.498 21.7272 186.413 21.7027C186.329 21.6782 186.251 21.6358 186.184 21.5782C186.118 21.5206 186.064 21.4493 186.028 21.3692C185.992 21.2891 185.973 21.2021 185.974 21.1141ZM185.974 20.1951V19.5161C185.689 19.6643 185.381 19.7633 185.064 19.8088C184.44 19.9258 183.94 20.0341 183.94 20.6195C183.94 21.1522 184.355 21.2663 184.762 21.2663C184.914 21.2803 185.067 21.2634 185.212 21.2165C185.357 21.1697 185.49 21.0938 185.605 20.9936C185.72 20.8935 185.813 20.771 185.879 20.6338C185.945 20.4965 185.982 20.3472 185.989 20.1951H185.974Z" fill="#202020"/>
<path d="M187.13 17.684H187.715V16.4254H188.339V17.684H189.111V18.1903H188.339V20.7805C188.339 21.0586 188.485 21.1522 188.74 21.1522C188.853 21.15 188.965 21.1312 189.073 21.0966H189.097V21.6381C188.931 21.6723 188.762 21.6899 188.593 21.6908C188.084 21.6908 187.715 21.483 187.715 20.921V18.1903H187.13V17.684Z" fill="#202020"/>
<path d="M189.488 19.68C189.488 18.5239 190.243 17.5815 191.376 17.5815C192.57 17.5815 193.211 18.5064 193.211 19.8264H190.126C190.173 20.6342 190.612 21.2517 191.414 21.2517C191.666 21.2737 191.917 21.2028 192.12 21.0524C192.324 20.902 192.465 20.6824 192.518 20.4351H193.126C193.057 20.8307 192.844 21.1866 192.528 21.4341C192.211 21.6817 191.815 21.8033 191.414 21.7756C190.197 21.7756 189.488 20.8361 189.488 19.68ZM190.141 19.3551H192.538C192.5 18.562 192.093 18.0761 191.367 18.0761C190.641 18.0761 190.235 18.6293 190.141 19.3551Z" fill="#202020"/>
<path d="M160.273 25.9727H164.166V26.5844H160.967V28.3258H163.873V28.9112H160.967V30.8458H164.251V31.4868H160.273V25.9727Z" fill="#202020"/>
<path d="M164.599 29.4966C164.599 28.3405 165.336 27.401 166.524 27.401C166.932 27.3707 167.336 27.4975 167.652 27.7556C167.969 28.0136 168.175 28.3832 168.228 28.7883H167.596C167.565 28.5318 167.437 28.297 167.237 28.1333C167.037 27.9695 166.782 27.8896 166.524 27.9103C165.676 27.9103 165.237 28.6127 165.237 29.4908C165.237 30.3688 165.676 31.0625 166.524 31.0625C166.662 31.0746 166.8 31.0582 166.931 31.0142C167.061 30.9703 167.181 30.8997 167.283 30.8071C167.385 30.7144 167.467 30.6016 167.523 30.4758C167.58 30.35 167.609 30.214 167.61 30.0762H168.228C168.143 31.0332 167.52 31.5864 166.524 31.5864C165.336 31.5923 164.599 30.6527 164.599 29.4966Z" fill="#202020"/>
<path d="M168.6 29.4966C168.6 28.3405 169.337 27.401 170.525 27.401C171.714 27.401 172.445 28.3405 172.445 29.4966C172.445 30.6527 171.72 31.5922 170.525 31.5922C169.331 31.5922 168.6 30.6527 168.6 29.4966ZM171.804 29.4966C171.804 28.6186 171.374 27.9161 170.525 27.9161C169.677 27.9161 169.238 28.6186 169.238 29.4966C169.238 30.3747 169.677 31.0683 170.525 31.0683C171.374 31.0683 171.804 30.3747 171.804 29.4966Z" fill="#202020"/>
<path d="M173.693 28.0244H173.71C173.854 27.8255 174.045 27.665 174.265 27.5573C174.486 27.4496 174.729 27.3979 174.975 27.4069C175.806 27.4069 176.315 27.8635 176.315 28.6888V31.4869H175.689V28.7415C175.689 28.2235 175.352 27.9308 174.787 27.9308C174.641 27.9249 174.496 27.9495 174.36 28.003C174.224 28.0565 174.1 28.1377 173.997 28.2415C173.894 28.3453 173.814 28.4694 173.762 28.6058C173.709 28.7423 173.686 28.8882 173.693 29.0342V31.4869H173.069V27.5122H173.693V28.0244Z" fill="#202020"/>
<path d="M176.915 29.4966C176.915 28.3405 177.656 27.401 178.844 27.401C180.032 27.401 180.761 28.3405 180.761 29.4966C180.761 30.6527 180.038 31.5922 178.844 31.5922C177.65 31.5922 176.915 30.6527 176.915 29.4966ZM180.135 29.4966C180.135 28.6186 179.701 27.9161 178.856 27.9161C178.01 27.9161 177.568 28.6186 177.568 29.4966C177.568 30.3747 178.007 31.0683 178.856 31.0683C179.704 31.0683 180.123 30.3747 180.123 29.4966H180.135Z" fill="#202020"/>
<path d="M181.387 27.5122H182.01V28.0975H182.025C182.148 27.8973 182.32 27.7314 182.525 27.6153C182.73 27.4992 182.96 27.4365 183.195 27.4332C183.422 27.4231 183.646 27.487 183.834 27.6153C184.021 27.7436 184.162 27.9292 184.235 28.1444H184.249C184.371 27.928 184.548 27.748 184.763 27.623C184.977 27.498 185.221 27.4325 185.47 27.4332C186.178 27.4332 186.678 27.8897 186.678 28.7151V31.5132H186.055V28.7444C186.063 28.6434 186.05 28.5418 186.017 28.4461C185.983 28.3504 185.931 28.2627 185.861 28.1886C185.792 28.1145 185.708 28.0556 185.615 28.0158C185.522 27.9759 185.422 27.9559 185.32 27.9571C185.186 27.9631 185.053 27.9956 184.931 28.0529C184.809 28.1102 184.699 28.1911 184.608 28.2909C184.517 28.3908 184.447 28.5075 184.402 28.6346C184.356 28.7616 184.336 28.8964 184.343 29.0312V31.5132H183.719V28.7444C183.719 28.2497 183.441 27.9571 183.032 27.9571C182.756 27.9713 182.496 28.0905 182.306 28.2903C182.115 28.49 182.008 28.7552 182.007 29.0312V31.5132H181.384L181.387 27.5122Z" fill="#202020"/>
<path d="M187.282 29.4966C187.282 28.3405 188.037 27.401 189.173 27.401C190.367 27.401 191.005 28.3259 191.005 29.643H187.923C187.97 30.4537 188.409 31.0683 189.211 31.0683C189.463 31.0908 189.714 31.0201 189.917 30.8695C190.12 30.719 190.26 30.4991 190.311 30.2517H190.92C190.853 30.6476 190.641 31.0043 190.325 31.2521C190.009 31.4999 189.612 31.6212 189.211 31.5922C187.993 31.5922 187.282 30.6527 187.282 29.4966ZM187.938 29.1717H190.335C190.297 28.3786 189.89 27.8927 189.164 27.8927C188.438 27.8927 188.031 28.4488 187.938 29.1717Z" fill="#202020"/>
<path d="M191.283 27.5122H191.869V26.2566H192.492V27.5122H193.262V28.0215H192.492V30.6117C192.492 30.8868 192.638 30.9805 192.893 30.9805C193.005 30.9789 193.117 30.9611 193.224 30.9278H193.247V31.4664C193.083 31.5018 192.915 31.5195 192.747 31.519C192.237 31.519 191.869 31.3112 191.869 30.7493V28.0098H191.283V27.5122Z" fill="#202020"/>
<path d="M194.529 28.162C194.65 27.9524 194.823 27.7773 195.031 27.6533C195.239 27.5293 195.475 27.4606 195.717 27.4537C195.804 27.4501 195.891 27.4661 195.972 27.5005V28.0976H195.948C195.854 28.0668 195.755 28.0539 195.655 28.0595C195.499 28.0581 195.343 28.0889 195.198 28.15C195.054 28.2111 194.923 28.3012 194.815 28.4148C194.706 28.5284 194.623 28.663 194.568 28.8103C194.514 28.9576 194.491 29.1145 194.499 29.2712V31.4839H193.876V27.5122H194.499L194.529 28.162Z" fill="#202020"/>
<path d="M196.548 25.9727H197.171V26.7453H196.548V25.9727ZM196.548 27.5005H197.171V31.4868H196.548V27.5005Z" fill="#202020"/>
<path d="M197.795 29.4966C197.795 28.3405 198.535 27.401 199.724 27.401C200.131 27.3706 200.535 27.4975 200.852 27.7555C201.168 28.0135 201.374 28.3831 201.427 28.7883H200.795C200.765 28.5318 200.636 28.2969 200.436 28.1332C200.237 27.9694 199.981 27.8895 199.724 27.9102C198.875 27.9102 198.436 28.6127 198.436 29.4907C198.436 30.3688 198.875 31.0624 199.724 31.0624C199.861 31.0746 199.999 31.0581 200.13 31.0142C200.261 30.9702 200.381 30.8997 200.483 30.807C200.585 30.7144 200.666 30.6016 200.723 30.4758C200.779 30.35 200.808 30.2139 200.81 30.0761H201.421C201.336 31.0332 200.713 31.5863 199.718 31.5863C198.535 31.5922 197.795 30.6527 197.795 29.4966Z" fill="#202020"/>
<path d="M160.273 35.7922H162.849C163.821 35.7922 164.476 36.401 164.476 37.3025C164.501 37.6057 164.419 37.908 164.244 38.157C164.069 38.406 163.813 38.5862 163.519 38.6664V38.6898C164.081 38.8917 164.26 39.2752 164.312 40.0917C164.374 40.9698 164.468 41.2039 164.567 41.2625V41.2947H163.821C163.704 41.1952 163.68 40.9844 163.619 40.0595C163.566 39.2517 163.241 38.9649 162.501 38.9649H160.967V41.3064H160.273V35.7922ZM160.967 38.4117H162.6C163.373 38.4117 163.771 38.0283 163.771 37.402C163.771 36.7317 163.461 36.3922 162.653 36.3922H160.979L160.967 38.4117Z" fill="#202020"/>
<path d="M164.959 39.3132C164.959 38.1571 165.717 37.2176 166.85 37.2176C168.044 37.2176 168.685 38.1425 168.685 39.4595H165.6C165.647 40.2703 166.086 40.8878 166.888 40.8878C167.14 40.9102 167.391 40.8391 167.594 40.6879C167.797 40.5368 167.937 40.3162 167.988 40.0683H168.6C168.531 40.4644 168.318 40.821 168.002 41.0692C167.686 41.3173 167.289 41.4394 166.888 41.4117C165.67 41.4117 164.959 40.4693 164.959 39.3132ZM165.615 38.9912H168.012C167.974 38.1981 167.567 37.7122 166.841 37.7122C166.115 37.7122 165.714 38.2654 165.615 38.9912Z" fill="#202020"/>
<path d="M169.039 40.0069H169.677C169.762 40.7005 170.224 40.8849 170.819 40.8849C171.474 40.8849 171.743 40.5922 171.743 40.2293C171.743 39.7844 171.436 39.6674 170.701 39.5122C169.917 39.3513 169.215 39.1903 169.215 38.3181C169.215 37.6566 169.724 37.2234 170.649 37.2234C171.635 37.2234 172.112 37.6947 172.215 38.4732H171.568C171.506 37.9493 171.22 37.7181 170.628 37.7181C170.037 37.7181 169.826 37.9727 169.826 38.3035C169.826 38.7337 170.213 38.8186 170.898 38.9591C171.7 39.12 172.361 39.2956 172.361 40.2147C172.361 41.0166 171.705 41.4235 170.789 41.4235C169.709 41.4176 169.101 40.9025 169.039 40.0069Z" fill="#202020"/>
<path d="M172.829 39.3132C172.829 38.1571 173.584 37.2176 174.72 37.2176C175.914 37.2176 176.552 38.1425 176.552 39.4595H173.47C173.517 40.2703 173.956 40.8878 174.758 40.8878C175.01 40.9102 175.261 40.8391 175.464 40.6879C175.667 40.5368 175.808 40.3162 175.858 40.0683H176.467C176.4 40.4645 176.188 40.8214 175.872 41.0697C175.556 41.318 175.159 41.4399 174.758 41.4117C173.54 41.4117 172.829 40.4693 172.829 39.3132ZM173.485 38.9912H175.882C175.844 38.1981 175.437 37.7122 174.711 37.7122C173.985 37.7122 173.578 38.2654 173.485 38.9912Z" fill="#202020"/>
<path d="M179.605 40.7473C179.45 40.9509 179.249 41.1145 179.019 41.2244C178.788 41.3344 178.534 41.3876 178.279 41.3795C177.524 41.3795 176.93 41.0254 176.93 40.2702C176.93 39.3307 177.67 39.1376 178.662 38.9824C179.227 38.8976 179.619 38.8449 179.619 38.4117C179.619 37.9785 179.295 37.7122 178.724 37.7122C178.077 37.7122 177.755 37.9873 177.732 38.5902H177.129C177.152 37.8176 177.661 37.241 178.718 37.241C179.567 37.241 180.181 37.5571 180.181 38.5054V40.3902C180.181 40.7122 180.257 40.8907 180.606 40.8146H180.641V41.2683C180.533 41.3105 180.417 41.3314 180.301 41.3297C180.217 41.3417 180.13 41.3357 180.048 41.3122C179.966 41.2887 179.889 41.2482 179.824 41.1933C179.758 41.1384 179.705 41.0704 179.667 40.9935C179.629 40.9167 179.608 40.8328 179.605 40.7473ZM179.622 39.8312V39.1522C179.337 39.3 179.03 39.3989 178.712 39.4449C178.086 39.5619 177.585 39.6702 177.585 40.2556C177.585 40.7854 178.001 40.9024 178.411 40.9024C178.561 40.9144 178.712 40.8959 178.856 40.8481C178.999 40.8002 179.131 40.7241 179.244 40.6241C179.357 40.5241 179.449 40.4024 179.514 40.2662C179.579 40.1299 179.616 39.982 179.622 39.8312Z" fill="#202020"/>
<path d="M181.718 37.9815H181.733C181.853 37.7711 182.026 37.5953 182.234 37.4707C182.442 37.3462 182.679 37.2772 182.921 37.2702C183.008 37.2683 183.095 37.2842 183.176 37.3171V37.92H183.152C183.058 37.8876 182.959 37.8747 182.86 37.8819C182.702 37.8785 182.545 37.9077 182.399 37.9677C182.252 38.0278 182.12 38.1173 182.01 38.2308C181.9 38.3443 181.815 38.4792 181.76 38.6272C181.705 38.7752 181.68 38.933 181.689 39.0907V41.3034H181.062V37.3171H181.689L181.718 37.9815Z" fill="#202020"/>
<path d="M183.359 39.3132C183.359 38.1571 184.1 37.2176 185.285 37.2176C185.693 37.1872 186.096 37.3141 186.413 37.5721C186.73 37.8301 186.936 38.1997 186.989 38.6049H186.356C186.326 38.3483 186.198 38.1135 185.998 37.9498C185.798 37.786 185.543 37.7061 185.285 37.7268C184.439 37.7268 183.997 38.4293 183.997 39.3073C183.997 40.1854 184.439 40.8819 185.285 40.8819C185.423 40.8936 185.561 40.8769 185.691 40.8328C185.822 40.7887 185.942 40.7182 186.044 40.6256C186.146 40.5331 186.228 40.4205 186.285 40.295C186.342 40.1694 186.372 40.0334 186.374 39.8956H186.989C186.904 40.8497 186.28 41.4058 185.285 41.4058C184.1 41.4117 183.359 40.4693 183.359 39.3132Z" fill="#202020"/>
<path d="M188.206 37.841H188.224C188.368 37.6424 188.559 37.4824 188.779 37.3752C189 37.2679 189.243 37.2168 189.488 37.2264C190.32 37.2264 190.829 37.68 190.829 38.5054V41.3035H190.203V38.5581C190.203 38.043 189.866 37.7503 189.301 37.7503C189.155 37.7445 189.01 37.769 188.874 37.8223C188.738 37.8756 188.615 37.9566 188.512 38.06C188.409 38.1635 188.329 38.2872 188.276 38.4233C188.224 38.5594 188.2 38.705 188.206 38.8508V41.3035H187.583V35.7922H188.206V37.841Z" fill="#202020"/>
<path d="M152.122 5.84485H150.396V41.3385H152.122V5.84485Z" fill="url(#paint0_linear_0_809)"/>
<defs>
<linearGradient id="paint0_linear_0_809" x1="151.259" y1="6.79314" x2="151.259" y2="40.4605" gradientUnits="userSpaceOnUse">
<stop stop-color="#29AAE1"/>
<stop offset="1" stop-color="#8FC640"/>
</linearGradient>
</defs>
</svg>